<svg width="26" height="25" viewBox="0 0 26 25" fill="none" xmlns="http://www.w3.org/2000/svg">
<g clip-path="url(#clip0_1_424)">
<path d="M13 25C19.9036 25 25.5 19.4036 25.5 12.5C25.5 5.59644 19.9036 0 13 0C6.09644 0 0.5 5.59644 0.5 12.5C0.5 19.4036 6.09644 25 13 25Z" fill="white"/>
<path d="M13.9667 10.7962C14.1722 10.5647 14.3371 10.3295 14.5519 10.1314C14.8566 9.83431 15.2174 9.60078 15.6132 9.44437C16.009 9.28796 16.4319 9.21178 16.8574 9.22027C17.3478 9.21182 17.8369 9.27103 18.3111 9.3962C19.3963 9.71102 20.0259 10.4573 20.3278 11.5166C20.5279 12.3104 20.6182 13.1279 20.5963 13.9462C20.5963 15.674 20.5963 17.3999 20.5963 19.1314C20.5963 19.2925 20.5519 19.3351 20.3926 19.3332C19.5013 19.3258 18.6117 19.3258 17.7241 19.3332C17.5667 19.3332 17.5389 19.2869 17.5389 19.148C17.5389 17.5048 17.5389 15.8616 17.5389 14.2184C17.5482 13.8057 17.4995 13.3936 17.3945 12.9943C17.1815 12.2536 16.6537 11.8832 15.8815 11.9221C14.8278 11.9777 14.2778 12.5018 14.1445 13.574C14.1118 13.8295 14.0957 14.0868 14.0963 14.3444C14.0963 15.9425 14.0963 17.5406 14.0963 19.1388C14.0963 19.2981 14.0556 19.3443 13.8926 19.3425C12.9982 19.3425 12.1019 19.3425 11.2056 19.3425C11.0611 19.3425 11.0204 19.3055 11.0204 19.1573C11.0204 15.9943 11.0204 12.8308 11.0204 9.66657C11.0204 9.50916 11.0704 9.48139 11.2185 9.48139C12.0704 9.48879 12.9216 9.48879 13.7722 9.48139C13.9278 9.48139 13.9685 9.53139 13.9574 9.67954C13.9611 10.0388 13.9667 10.4166 13.9667 10.7962Z" fill="#272727"/>
<path d="M9.09259 14.4111C9.09259 15.9759 9.09259 17.5407 9.09259 19.1055C9.09259 19.2796 9.04999 19.3333 8.87036 19.3314C7.97962 19.3203 7.09074 19.3314 6.20185 19.3314C6.05926 19.3314 6.01666 19.2963 6.01666 19.1463C6.01666 15.9759 6.01666 12.8068 6.01666 9.63886C6.01666 9.50738 6.04999 9.45367 6.18888 9.46293C7.09074 9.46293 7.99258 9.46293 8.89444 9.46293C9.06851 9.46293 9.09073 9.52774 9.09073 9.67774C9.0895 11.2555 9.09012 12.8333 9.09259 14.4111Z" fill="#272727"/>
<path d="M9.33705 6.32404C9.33888 6.67583 9.23619 7.02024 9.042 7.31359C8.84781 7.60693 8.57088 7.836 8.24632 7.97172C7.92176 8.10745 7.56421 8.14373 7.21901 8.07595C6.8738 8.00818 6.55649 7.83941 6.30734 7.59104C6.0582 7.34267 5.88843 7.02591 5.81957 6.68091C5.75071 6.33592 5.78586 5.97825 5.92057 5.65327C6.05528 5.32829 6.28348 5.05063 6.57621 4.85552C6.86895 4.66041 7.21303 4.55665 7.56483 4.55738C8.03314 4.55979 8.48167 4.74652 8.81335 5.07716C9.14502 5.40779 9.33316 5.85573 9.33705 6.32404Z" fill="#272727"/>
</g>
<defs>
<clipPath id="clip0_1_424">
<rect width="25" height="25" fill="white" transform="translate(0.5)"/>
</clipPath>
</defs>
</svg>
