<svg width="26" height="25" viewBox="0 0 26 25" fill="none" xmlns="http://www.w3.org/2000/svg">
<g clip-path="url(#clip0_1_418)">
<path d="M13 25C19.9036 25 25.5 19.4036 25.5 12.5C25.5 5.59644 19.9036 0 13 0C6.09644 0 0.5 5.59644 0.5 12.5C0.5 19.4036 6.09644 25 13 25Z" fill="white"/>
<path d="M9.60743 7.161C10.0665 7.15617 10.5247 7.20089 10.9741 7.29435C11.3512 7.36824 11.7104 7.51478 12.0315 7.72582C12.3261 7.92781 12.5624 8.20369 12.7167 8.52581C12.8875 8.9126 12.9691 9.33284 12.9556 9.75544C12.9751 10.2236 12.8503 10.6864 12.5982 11.0814C12.3256 11.4598 11.9566 11.7585 11.5296 11.9462C12.1102 12.0887 12.6206 12.4342 12.9685 12.9203C13.2471 13.3763 13.4083 13.8942 13.4377 14.4278C13.4671 14.9613 13.3638 15.4938 13.1371 15.9777C12.9413 16.3556 12.6574 16.6809 12.3093 16.9258C11.9476 17.1773 11.5436 17.3617 11.1167 17.4703C10.6698 17.5911 10.2092 17.6533 9.74632 17.6554H4.66669V7.17583L9.60743 7.161ZM9.30743 11.3943C9.66931 11.4093 10.0262 11.3059 10.3241 11.0999C10.5889 10.9147 10.7167 10.5869 10.7167 10.148C10.7249 9.93991 10.681 9.73302 10.5889 9.54618C10.5067 9.39238 10.3837 9.26422 10.2334 9.17581C10.0773 9.08289 9.90518 9.02007 9.72595 8.99063C9.5299 8.95444 9.33086 8.93709 9.13151 8.93879H6.9741V11.3869L9.30743 11.3943ZM9.43521 15.8555C9.65306 15.8574 9.87046 15.8351 10.0834 15.7888C10.2772 15.7516 10.4617 15.676 10.6259 15.5666C10.7828 15.4614 10.9103 15.318 10.9963 15.1499C11.0959 14.9376 11.1429 14.7045 11.1334 14.4703C11.1334 13.9295 10.9815 13.5443 10.6797 13.3129C10.3266 13.0703 9.90383 12.9499 9.47595 12.9703H6.9741V15.8555H9.43521Z" fill="#272727"/>
<path d="M16.7296 15.8203C17.0432 16.1265 17.4926 16.2796 18.0778 16.2796C18.465 16.2888 18.8455 16.1775 19.1666 15.961C19.4214 15.8049 19.6168 15.5684 19.7222 15.2888H21.5574C21.2611 16.2018 20.8166 16.8536 20.2037 17.2462C19.5451 17.6553 18.7804 17.8608 18.0055 17.837C17.4527 17.8444 16.9035 17.747 16.387 17.5499C15.9247 17.3696 15.507 17.0909 15.1629 16.7333C14.8232 16.3681 14.5611 15.9378 14.3926 15.4684C14.2064 14.95 14.1142 14.4026 14.1203 13.8518C14.1163 13.3102 14.211 12.7724 14.4 12.2648C14.5757 11.7912 14.846 11.3583 15.1944 10.9925C15.5441 10.6316 15.9621 10.3439 16.4241 10.1462C16.9243 9.93541 17.4627 9.83014 18.0055 9.83698C18.5896 9.82133 19.1687 9.94847 19.6926 10.2074C20.1599 10.4459 20.5651 10.7902 20.8759 11.2129C21.1895 11.6453 21.416 12.1347 21.5426 12.6536C21.6809 13.2052 21.7297 13.7755 21.687 14.3425H16.2148C16.2148 14.9481 16.4166 15.5259 16.7296 15.8203ZM19.1241 11.8333C18.8778 11.5611 18.4574 11.4111 17.9463 11.4111C17.6601 11.4013 17.3758 11.4597 17.1167 11.5814C16.9141 11.6835 16.7345 11.826 16.5889 11.9999C16.4599 12.1572 16.3647 12.3394 16.3092 12.5351C16.2595 12.6978 16.2279 12.8655 16.2148 13.0351H19.6055C19.58 12.5928 19.411 12.1709 19.1241 11.8333Z" fill="#272727"/>
<path d="M20.037 7.86475H15.7889V8.89993H20.037V7.86475Z" fill="#272727"/>
</g>
<defs>
<clipPath id="clip0_1_418">
<rect width="25" height="25" fill="white" transform="translate(0.5)"/>
</clipPath>
</defs>
</svg>
