<svg width="28" height="26" viewBox="0 0 28 26" fill="none" xmlns="http://www.w3.org/2000/svg">
<path d="M21.8912 15.9285C21.5459 16.2631 21.3872 16.7471 21.4659 17.2218L22.6512 23.7818C22.7512 24.3378 22.5165 24.9005 22.0512 25.2218C21.5952 25.5551 20.9885 25.5951 20.4912 25.3285L14.5858 22.2485C14.3805 22.1391 14.1525 22.0805 13.9192 22.0738H13.5578C13.4325 22.0925 13.3099 22.1325 13.1979 22.1938L7.29118 25.2885C6.99918 25.4351 6.66852 25.4871 6.34452 25.4351C5.55518 25.2858 5.02852 24.5338 5.15785 23.7405L6.34452 17.1805C6.42318 16.7018 6.26452 16.2151 5.91918 15.8751L1.10452 11.2085C0.70185 10.8178 0.56185 10.2311 0.74585 9.70179C0.924517 9.17379 1.38052 8.78846 1.93118 8.70179L8.55785 7.74046C9.06185 7.68846 9.50452 7.38179 9.73118 6.92846L12.6512 0.94179C12.7205 0.808457 12.8099 0.68579 12.9179 0.58179L13.0378 0.488457C13.1005 0.419124 13.1725 0.36179 13.2525 0.315124L13.3979 0.26179L13.6245 0.168457H14.1859C14.6872 0.220457 15.1285 0.520457 15.3592 0.968457L18.3179 6.92846C18.5312 7.36446 18.9459 7.66712 19.4245 7.74046L26.0512 8.70179C26.6112 8.78179 27.0792 9.16846 27.2645 9.70179C27.4392 10.2365 27.2885 10.8231 26.8779 11.2085L21.8912 15.9285Z" fill="#FD853A"/>
</svg>
