<svg width="128" height="128" viewBox="0 0 128 128" fill="none" xmlns="http://www.w3.org/2000/svg">
<path d="M84.8534 65.9733H109.867C109.44 90.88 104.533 94.9866 89.2267 104.053C87.4667 105.12 86.88 107.36 87.9467 109.173C89.0134 110.933 91.2534 111.52 93.0667 110.453C111.093 99.7866 117.387 93.28 117.387 62.24V33.4933C117.387 24.3733 109.973 17.0133 100.907 17.0133H84.9067C75.52 17.0133 68.4267 24.1066 68.4267 33.4933V49.4933C68.3734 58.88 75.4667 65.9733 84.8534 65.9733Z" fill="#667085" fill-opacity="0.3"/>
<path d="M27.1466 65.9733H52.16C51.7333 90.88 46.8266 94.9866 31.52 104.053C29.76 105.12 29.1733 107.36 30.24 109.173C31.3066 110.933 33.5466 111.52 35.36 110.453C53.3866 99.7866 59.68 93.28 59.68 62.24V33.4933C59.68 24.3733 52.2666 17.0133 43.2 17.0133H27.2C17.76 17.0133 10.6666 24.1066 10.6666 33.4933V49.4933C10.6666 58.88 17.76 65.9733 27.1466 65.9733Z" fill="#667085" fill-opacity="0.3"/>
</svg>
