<svg width="17" height="17" viewBox="0 0 17 17" fill="none" xmlns="http://www.w3.org/2000/svg">
<path fill-rule="evenodd" clip-rule="evenodd" d="M14.013 2.64077C12.6538 1.27807 10.8453 0.456242 8.92489 0.328523C7.00445 0.200804 5.10312 0.775918 3.57543 1.94662C2.04774 3.11732 0.997974 4.80369 0.621903 6.69127C0.245832 8.57885 0.569123 10.5388 1.53149 12.2056L0.40741 16.313L4.60926 15.2111C5.77274 15.8435 7.07579 16.1752 8.40001 16.176C9.96821 16.1761 11.5012 15.7112 12.8053 14.8401C14.1093 13.9691 15.1257 12.7309 15.7261 11.2822C16.3265 9.83343 16.4838 8.23923 16.1782 6.70109C15.8726 5.16295 15.1178 3.74996 14.0093 2.64077H14.013ZM8.40186 14.8371C7.22122 14.8343 6.06297 14.5145 5.04815 13.9111L4.80741 13.7685L2.31297 14.4223L2.96852 11.9982L2.82038 11.75C2.04397 10.5121 1.70098 9.05127 1.84532 7.59716C1.98966 6.14306 2.61314 4.77815 3.61776 3.71702C4.62237 2.65589 5.95114 1.95871 7.39518 1.73508C8.83921 1.51145 10.3166 1.77405 11.5951 2.48161C12.8737 3.18916 13.8808 4.30154 14.4582 5.64387C15.0356 6.98621 15.1505 8.48237 14.785 9.89714C14.4194 11.3119 13.594 12.5651 12.4385 13.4596C11.2831 14.3542 9.86311 14.8394 8.40186 14.8389V14.8371ZM12.0185 9.89818C11.8204 9.79818 10.8463 9.3204 10.6648 9.25373C10.4833 9.18707 10.35 9.15559 10.2185 9.35373C10.087 9.55188 9.70741 9.99818 9.59075 10.1297C9.47408 10.2611 9.35927 10.2778 9.16112 10.1797C8.57762 9.94597 8.03885 9.61331 7.56853 9.19632C7.13214 8.79657 6.75766 8.3341 6.45742 7.8241C6.34075 7.62595 6.44445 7.51855 6.54445 7.4204C6.64445 7.32225 6.74259 7.18892 6.84074 7.07225C6.92307 6.97504 6.99105 6.86653 7.0426 6.75003C7.0686 6.69509 7.08068 6.63459 7.07777 6.57387C7.07487 6.51315 7.05706 6.45409 7.02593 6.40188C6.97593 6.30373 6.57963 5.32781 6.41482 4.93151C6.25 4.53521 6.09075 4.59818 5.97038 4.59262C5.85001 4.58707 5.72223 4.59262 5.5889 4.59262C5.48859 4.59547 5.38994 4.61898 5.29913 4.66167C5.20832 4.70437 5.12729 4.76534 5.06111 4.84077C4.83738 5.05298 4.66025 5.30944 4.54102 5.59383C4.42178 5.87821 4.36304 6.1843 4.36852 6.49262C4.36852 7.46669 5.07778 8.40929 5.17778 8.54077C5.27778 8.67225 6.57408 10.6741 8.56112 11.5315C8.93017 11.6905 9.30721 11.8302 9.69074 11.95C10.0951 12.0727 10.5225 12.0993 10.9389 12.0278C11.3204 11.9704 12.1111 11.5482 12.2759 11.0871C12.4407 10.626 12.4426 10.2278 12.3926 10.1445C12.3426 10.0611 12.2167 10.0019 12.0185 9.89818Z" fill="#272727"/>
</svg>
